# Exported from Wings 3D 1.0.1
mtllib TreeStump03.mtl
o Mesh
#37 vertices, 60 faces
v 0.82225800 -1.0132800e-8 -1.7509200e-2
v 0.60906200 -1.0132800e-8 -0.65090300
v -0.53644200 -1.0132800e-8 -0.89891900
v -0.39261800 -1.0132800e-8 0.79965100
v 0.55342200 -1.0132800e-8 0.73193400
v 0.64672600 0.36029000 -3.4694500e-17
v 0.35474900 0.31779000 0.52213000
v -0.25316900 0.31779000 0.58508700
v -0.41538500 0.36029000 -0.66910500
v 0.46945700 0.36029000 -0.55824400
v 0.61777200 0.68449100 -1.3521200e-2
v 0.40626800 0.69208200 -0.55311200
v 0.29760800 0.69044200 0.50402600
v -0.28230400 0.67347200 0.51661600
v -0.36422300 0.68350800 -0.62535800
v -1.18630000 -1.0132800e-8 2.6898700e-2
v -0.74885900 0.34329000 -2.9713200e-2
v -0.59193100 0.68246300 -9.8736000e-3
v 6.2654300e-2 -1.0132800e-8 0.82832200
v 2.5580900e-2 0.31779000 0.63621900
v 2.5174900e-2 0.68247000 0.58994100
v -0.75612800 -1.0132800e-8 0.41764500
v -0.52964700 0.33214200 0.30408400
v -0.47146100 0.67838400 0.27083500
v -0.77161800 -1.0132800e-8 -0.42010900
v -0.55680300 0.35209800 -0.32244800
v -0.48364600 0.68296000 -0.28158600
v -5.8711000e-2 -1.0132800e-8 -0.95889700
v 8.4976700e-5 0.36029000 -0.73203900
v -9.3569700e-4 0.68799600 -0.70754300
v 0.92896800 -1.0132800e-8 -0.49126400
v 0.69249100 0.28029000 -0.35675800
v 0.57150600 0.68830500 -0.31462900
v 0.75575700 -1.0132800e-8 0.40088200
v 0.55688900 0.33848000 0.30794800
v 0.51565400 0.68750400 0.28854300
v 0.0000000e+0 0.87000000 0.0000000e+0
vt -1.11016000 0.0000000e+0
vt -1.10888000 0.54389500
vt -1.09668000 0.98694500
vt -0.95053700 0.0000000e+0
vt -0.92962700 0.52789400
vt -0.91537000 0.99574800
vt -0.75402700 0.0000000e+0
vt -0.69884700 0.50729500
vt -0.69702800 1.00635000
vt -0.52799600 0.0000000e+0
vt -0.49297300 0.52407700
vt -0.46028100 1.00415000
vt -0.25051500 1.00220000
vt -0.24986300 0.54389500
vt -0.22263000 0.0000000e+0
vt -0.16103600 0.54389500
vt -0.15896500 0.99658600
vt -0.14909800 0.0000000e+0
vt -6.7397100e-2 0.54389500
vt -6.5052100e-2 0.99082300
vt -6.4856400e-2 0.0000000e+0
vt 2.8950900e-2 0.99811700
vt 4.8575800e-2 0.54389500
vt 6.1437300e-2 0.0000000e+0
vt 8.0000000e-2 0.44600800
vt 0.12204400 1.00534000
vt 0.12951400 0.68896700
vt 0.15076700 0.54389500
vt 0.16612000 0.26273900
vt 0.17708600 0.0000000e+0
vt 0.24823500 0.84000000
vt 0.31595300 0.13000000
vt 0.34420200 0.98008300
vt 0.36728800 0.54389500
vt 0.37638300 0.0000000e+0
vt 0.47561200 0.89288600
vt 0.48931900 0.45238900
vt 0.50013000 9.5845600e-2
vt 0.57783600 0.0000000e+0
vt 0.58819300 0.95234400
vt 0.59696800 0.54389500
vt 0.66533700 0.13102500
vt 0.69316000 0.82673600
vt 0.78409600 0.0000000e+0
vt 0.78930800 0.54389500
vt 0.79748900 0.97049100
vt 0.82598600 0.25474500
vt 0.84615500 0.68363200
vt 0.90200000 0.46422900
vt 0.98726500 0.98694500
vt 0.99483600 0.0000000e+0
vt 0.99612100 0.54389500
vn 0.88903753 0.42484281 0.17064834
vn 0.40181936 0.37100576 -0.83719527
vn -0.48011414 0.58069738 -0.65748077
vn -0.32527238 0.62302646 0.71136201
vn 0.41796027 0.66787128 0.61583859
vn 0.92931868 0.34192895 0.13946825
vn 0.49546259 0.37215141 0.78486951
vn -0.43798866 0.37807061 0.81561544
vn -0.57073381 0.40697170 -0.71318788
vn 0.51745523 0.32991899 -0.78955275
vn 0.76582413 0.63940480 6.8373251e-2
vn 0.45691757 0.67222273 -0.58253149
vn 0.38810953 0.64777088 0.65556379
vn -0.42230329 0.64337320 0.63853807
vn -0.47760445 0.71248364 -0.51406327
vn -0.61719027 0.78681108 2.1206884e-3
vn -0.83981648 0.54279744 8.9000275e-3
vn -0.65158026 0.75839075 1.6930333e-2
vn 5.7039037e-2 0.55927211 0.82701950
vn 7.0861208e-2 0.33185639 0.94066467
vn 3.4917924e-2 0.47605312 0.87872303
vn -0.57028514 0.62832902 0.52912900
vn -0.70417626 0.40170674 0.58546349
vn -0.70656566 0.51018396 0.49038483
vn -0.71076244 0.56655137 -0.41693680
vn -0.81291549 0.40692971 -0.41662527
vn -0.76276729 0.55634501 -0.32964570
vn 0.12036065 0.50066177 -0.85723457
vn 9.9869846e-2 0.30640005 -0.94664937
vn 7.0571186e-2 0.47293487 -0.87826666
vn 0.74121984 0.60063085 -0.29972610
vn 0.81058898 0.51373045 -0.28111657
vn 0.78812008 0.54005967 -0.29530036
vn 0.75088985 0.55126263 0.36369485
vn 0.80249779 0.34417711 0.48738014
vn 0.75466408 0.47407313 0.45358217
vn -1.3726488e-2 0.99938350 3.2314247e-2
g Mesh_Bark
usemtl Bark
f 1/21/1 31/24/31 6/19/6
f 2/30/2 28/35/28 10/28/10
f 3/39/3 25/44/25 9/41/9
f 4/7/4 19/10/19 8/8/8
f 5/15/5 34/18/34 7/14/7
f 6/19/6 31/24/31 32/23/32
f 6/19/6 33/22/33 11/20/11
f 6/19/6 34/18/34 1/21/1
f 6/19/6 36/17/36 35/16/35
f 7/14/7 19/10/19 5/15/5
f 7/14/7 21/12/21 20/11/20
f 7/14/7 34/18/34 35/16/35
f 7/14/7 36/17/36 13/13/13
f 8/8/8 19/10/19 20/11/20
f 8/8/8 21/12/21 14/9/14
f 8/8/8 22/4/22 4/7/4
f 8/8/8 24/6/24 23/5/23
f 9/41/9 25/44/25 26/45/26
f 9/41/9 27/46/27 15/40/15
f 9/41/9 28/35/28 3/39/3
f 9/41/9 30/33/30 29/34/29
f 10/28/10 28/35/28 29/34/29
f 10/28/10 30/33/30 12/26/12
f 10/28/10 31/24/31 2/30/2
f 10/28/10 33/22/33 32/23/32
f 11/20/11 36/17/36 6/19/6
f 12/26/12 33/22/33 10/28/10
f 13/13/13 21/12/21 7/14/7
f 14/9/14 24/6/24 8/8/8
f 15/40/15 30/33/30 9/41/9
f 16/1/16 22/4/22 17/2/17
f 17/2/17 22/4/22 23/5/23
f 17/2/17 24/6/24 18/3/18
f 17/52/17 25/44/25 16/51/16
f 17/52/17 27/46/27 26/45/26
f 18/50/18 27/46/27 17/52/17
f 20/11/20 19/10/19 7/14/7
f 20/11/20 21/12/21 8/8/8
f 23/5/23 22/4/22 8/8/8
f 23/5/23 24/6/24 17/2/17
f 26/45/26 25/44/25 17/52/17
f 26/45/26 27/46/27 9/41/9
f 29/34/29 28/35/28 9/41/9
f 29/34/29 30/33/30 10/28/10
f 32/23/32 31/24/31 10/28/10
f 32/23/32 33/22/33 6/19/6
f 35/16/35 34/18/34 6/19/6
f 35/16/35 36/17/36 7/14/7
g Mesh_CutStump
usemtl CutStump
f 11/49/11 37/37/37 36/47/36
f 12/43/12 37/37/37 33/48/33
f 13/42/13 37/37/37 21/38/21
f 14/32/14 37/37/37 24/29/24
f 15/31/15 37/37/37 30/36/30
f 18/25/18 37/37/37 27/27/27
f 21/38/21 37/37/37 14/32/14
f 24/29/24 37/37/37 18/25/18
f 27/27/27 37/37/37 15/31/15
f 30/36/30 37/37/37 12/43/12
f 33/48/33 37/37/37 11/49/11
f 36/47/36 37/37/37 13/42/13
